<svg width="205" height="279" viewBox="0 0 205 279" fill="none" xmlns="http://www.w3.org/2000/svg">
<path d="M16.1376 157.449L9.22144 149.545V179.021L15.1496 173.752L26.1826 176.222L21.4071 166.012L27.3353 156.296L16.1376 157.449Z" fill="#E24B4D"/>
<path d="M184.267 203.393L192.501 211.132L190.854 222.33L194.806 220.189V201.746L184.267 203.393Z" fill="#E24B4D"/>
<path d="M9.22144 219.695V231.716C11.8562 230.892 13.8322 228.587 13.8322 225.788C13.6675 222.824 11.8562 220.354 9.22144 219.695Z" fill="#36757A"/>
<path d="M188.713 167.659C188.713 171.117 191.513 173.752 194.806 173.916V161.401C191.513 161.566 188.713 164.201 188.713 167.659Z" fill="#36757A"/>
<path d="M9.22144 104.26V258.722C9.22144 258.722 48.9072 282.929 126.961 277.494C196.617 272.719 194.971 255.923 194.971 255.923V99.8142L9.22144 104.26Z" fill="white"/>
<path opacity="0.51" d="M9.22144 107.06V146.91C26.0179 155.638 66.527 171.446 129.102 164.859C166.976 160.907 185.749 154.814 194.971 149.38V104.26L9.22144 107.06Z" fill="#E7DAEA"/>
<path d="M90.7337 156.296C90.7337 159.755 87.9343 162.554 84.4762 162.554C81.0181 162.554 78.2188 159.755 78.2188 156.296C78.2188 152.838 81.0181 150.039 84.4762 150.039C87.9343 150.039 90.7337 152.838 90.7337 156.296Z" fill="#36757A"/>
<path d="M0.329346 97.3443V131.925C0.329346 131.925 44.6259 163.872 129.102 155.144C208.803 146.746 203.863 128.961 203.863 128.961V94.5449L0.329346 97.3443Z" fill="#E7DAEA"/>
<path d="M102.261 123.527C158.738 123.527 204.522 110.477 204.522 94.3801C204.522 78.2828 158.738 65.2333 102.261 65.2333C45.7836 65.2333 -0.00012207 78.2828 -0.00012207 94.3801C-0.00012207 110.477 45.7836 123.527 102.261 123.527Z" fill="white"/>
<path d="M92.6078 202L94.9132 213.198L105.288 217.479L95.4073 223.078L94.4192 234.44L86.1856 226.701L75.1526 229.335L79.7635 218.961L74 209.246L85.1976 210.563L92.6078 202Z" fill="#E31C79"/>
<path d="M95.0151 261.357L90.2397 271.566L79.0421 273.378L83.4882 277.659C90.569 278.153 97.9793 278.318 105.884 278.318L111.318 272.884L100.12 271.402L95.0151 261.357Z" fill="#E31C79"/>
<path d="M120.35 160L127.925 168.398L139.123 166.752L133.524 176.632L138.464 186.841L127.266 184.536L119.198 192.276L117.88 181.078L108 175.644L118.374 171.033L120.35 160Z" fill="#E31C79"/>
<path d="M144.126 222L148.243 232.539L159.276 235.174L150.548 242.255L151.536 253.617L141.985 247.524L131.611 251.97L134.41 240.937L127 232.374L138.362 231.716L144.126 222Z" fill="#E31C79"/>
<path d="M55.1257 158L59.2425 168.539L70.2755 171.174L61.548 178.255L62.536 189.617L52.985 183.524L42.6108 187.97L45.4102 176.937L38 168.374L49.3623 167.716L55.1257 158Z" fill="#E31C79"/>
<path d="M33.0989 227.928L37.2157 238.467L48.2487 240.937L39.5212 248.183L40.5091 259.545L30.9582 253.452L20.5839 257.899L23.3833 246.866L15.9731 238.303L27.3355 237.644L33.0989 227.928Z" fill="#E31C79"/>
<path d="M133.548 216.566C137.004 216.566 139.806 213.764 139.806 210.309C139.806 206.853 137.004 204.051 133.548 204.051C130.092 204.051 127.291 206.853 127.291 210.309C127.291 213.764 130.092 216.566 133.548 216.566Z" fill="#36757A"/>
<path d="M51.5421 205.533C51.5421 208.991 48.7427 211.791 45.2846 211.791C41.8265 211.791 39.027 208.991 39.027 205.533C39.027 202.075 41.8265 199.276 45.2846 199.276C48.7427 199.276 51.5421 202.075 51.5421 205.533Z" fill="#36757A"/>
<path d="M140.465 269.92C137.006 269.92 134.207 272.719 134.207 276.177C134.207 276.506 134.207 276.671 134.207 277C138.653 276.671 142.77 276.177 146.557 275.683C146.393 272.554 143.758 269.92 140.465 269.92Z" fill="#36757A"/>
<path d="M54.3414 265.474C50.8834 265.474 48.0839 268.273 48.0839 271.731C48.0839 272.06 48.0839 272.225 48.0839 272.554C51.7066 273.378 55.4941 274.201 59.7756 274.86C60.2696 273.872 60.5989 272.884 60.5989 271.731C60.5989 268.273 57.7995 265.474 54.3414 265.474Z" fill="#36757A"/>
<path d="M143.758 67.7034L101.437 81.7004L59.6109 67.868C49.7306 69.1854 40.509 70.9968 32.6048 72.9729L80.1948 88.6166L14.985 110.024V261.521C19.7605 263.827 27.6647 266.956 38.6977 269.92V116.117L101.437 95.5328L164.177 116.117V272.719C176.198 270.084 183.444 267.12 187.89 264.321V110.024L122.68 88.6166L171.093 72.8082C163.024 70.6674 153.803 69.0207 143.758 67.7034Z" fill="#E31C79"/>
<path d="M158.414 28.5116C159.402 22.9127 154.132 1.34081 154.132 1.34081C154.956 37.0745 123.339 65.8919 105.884 79.2303C82.8296 65.7273 71.4672 0.846798 71.4672 0.846798C65.7037 7.92766 62.4103 33.781 62.4103 33.781L43.8025 9.08036C54.8355 102.12 103.578 88.9459 103.578 88.9459C189.043 68.6914 182.62 0.682129 182.62 0.682129C179.162 15.8319 158.414 28.5116 158.414 28.5116Z" fill="#E31C79"/>
<path d="M158.414 28.5116C159.402 22.9127 154.132 1.34081 154.132 1.34081C154.956 37.0745 123.339 65.8919 105.884 79.2303C82.8296 65.7273 71.4672 0.846798 71.4672 0.846798C65.7037 7.92766 62.4103 33.781 62.4103 33.781L43.8025 9.08036C54.8355 102.12 103.578 88.9459 103.578 88.9459C189.043 68.6914 182.62 0.682129 182.62 0.682129C179.162 15.8319 158.414 28.5116 158.414 28.5116Z" fill="url(#paint0_linear)"/>
<path d="M100.12 89.934C100.12 89.934 47.0959 51.2362 62.2457 38.7212C76.5721 27.0296 92.8745 24.5595 99.132 32.4637C105.389 40.3679 103.743 78.5717 105.884 82.5238C108.354 86.4759 100.12 89.934 100.12 89.934Z" fill="#E31C79"/>
<path d="M100.614 79.2304C100.614 79.2304 85.1349 39.2153 92.8745 34.7691C92.8745 34.7691 99.9554 30.1583 100.614 79.2304Z" fill="#E31C79"/>
<path d="M100.614 79.2304C100.614 79.2304 85.1349 39.2153 92.8745 34.7691C92.8745 34.7691 99.9554 30.1583 100.614 79.2304Z" fill="url(#paint1_linear)"/>
<path d="M105.06 91.9101C105.06 91.9101 159.566 61.6105 146.722 48.1075C134.701 35.2631 119.387 31.1464 112.635 37.8979C105.884 44.6494 102.919 80.7124 100.285 84.3352C97.8147 87.7933 105.06 91.9101 105.06 91.9101Z" fill="#E31C79"/>
<path d="M106.048 85.6525C106.048 85.6525 135.689 45.6374 141.782 52.0596C141.782 52.0596 128.444 77.913 106.048 85.6525Z" fill="#E31C79"/>
<path d="M106.048 85.6525C106.048 85.6525 135.689 45.6374 141.782 52.0596C141.782 52.0596 128.444 77.913 106.048 85.6525Z" fill="url(#paint2_linear)"/>
<defs>
<linearGradient id="paint0_linear" x1="182.732" y1="0.682131" x2="57.5156" y2="105.904" gradientUnits="userSpaceOnUse">
<stop stop-opacity="0"/>
<stop offset="1"/>
</linearGradient>
<linearGradient id="paint1_linear" x1="100.614" y1="34.6537" x2="85.5947" y2="36.4487" gradientUnits="userSpaceOnUse">
<stop stop-opacity="0"/>
<stop offset="1"/>
</linearGradient>
<linearGradient id="paint2_linear" x1="141.782" y1="51.3617" x2="99.9648" y2="74.7955" gradientUnits="userSpaceOnUse">
<stop stop-opacity="0"/>
<stop offset="1"/>
</linearGradient>
</defs>
</svg>
