<svg width="212" height="201" viewBox="0 0 212 201" fill="none" xmlns="http://www.w3.org/2000/svg">
<path d="M121.989 12.5772C118.515 11.3195 114.33 11.1623 110.698 10.5334C108.25 10.1404 106.355 1.80798 105.092 0C103.434 3.22292 101.934 7.07469 99.9596 10.3762C99.4859 11.2409 90.4848 11.8698 88.274 12.1056C90.4848 14.9355 94.5116 17.4509 96.4855 20.5166C96.9593 21.2241 94.3537 30.4212 94.5116 32.0719C98.1436 30.4998 101.776 28.5346 105.092 26.8838L115.751 32.6222L113.856 20.6738C113.382 17.9226 120.646 14.621 121.989 12.5772ZM96.8803 14.9355C94.7485 14.3066 92.6166 13.6777 90.4848 13.0489C91.2743 13.2847 92.6956 12.8917 93.4852 12.8917C95.1433 12.8131 96.8014 12.6558 98.5384 12.6558C98.9332 12.6558 100.197 14.0708 100.512 14.3852C101.46 15.1713 102.486 15.8788 103.197 16.822C100.986 16.429 98.9332 15.5643 96.8803 14.9355ZM101.381 21.8529C100.828 22.7962 100.275 23.7395 99.7228 24.6042C98.6174 26.4908 97.2751 28.2988 96.1697 30.1854C96.4855 29.6351 96.5645 28.456 96.7224 27.7485C97.0382 26.4122 97.433 25.0759 97.6699 23.7395C97.7488 23.4251 97.6699 22.4818 97.9068 22.3246C98.2226 22.3246 99.0122 21.5385 99.328 21.3027C99.8017 20.9883 100.354 20.5952 100.828 20.2808C101.539 19.8091 102.486 19.4161 103.118 18.7086C102.486 19.6519 101.934 20.9096 101.381 21.8529ZM105.329 6.68166C105.329 5.73836 105.408 4.87368 105.408 3.93039C105.408 3.69456 105.566 3.22291 105.408 2.90848C106.197 5.34532 106.908 7.78216 107.697 10.219C107.934 10.8479 107.303 11.6339 106.987 12.1842C106.592 12.8917 106.276 13.5991 105.881 14.3066C105.645 14.7782 104.934 15.7215 104.934 16.1932C105.092 13.0489 105.171 9.90457 105.329 6.68166ZM109.513 27.3555C108.645 26.8052 107.066 26.4908 106.513 25.6261C106.118 24.9186 106.197 23.5037 106.039 22.7176C105.881 21.6171 105.645 20.5166 105.408 19.4161C106.829 21.0669 108.092 22.8748 109.434 24.5256C110.145 25.4689 110.935 26.3336 111.645 27.2769C112.04 27.7485 112.356 28.2202 112.751 28.6132C113.067 29.0062 113.461 29.7137 113.856 29.9495C112.435 29.1635 111.014 28.2202 109.513 27.3555ZM113.935 17.2151C113.619 17.4509 113.224 17.6081 112.909 17.8439C112.04 18.3942 111.408 18.0798 110.54 17.8439C109.671 17.6867 108.803 17.4509 107.934 17.2937C107.382 17.1365 106.355 16.6648 105.802 16.822C108.487 16.2718 111.251 15.6429 113.935 15.1713C114.33 15.0927 118.041 14.621 118.751 14.1494C118.83 14.0708 118.83 14.0708 118.83 13.9922C118.83 14.0708 118.751 14.0708 118.751 14.1494C117.962 14.8569 116.856 15.3285 115.909 15.9574C115.277 16.3504 114.567 16.822 113.935 17.2151Z" fill="#FFE3AB"/>
<path d="M121.989 12.5772C118.515 11.3195 114.33 11.1623 110.698 10.5334C108.25 10.1404 106.355 1.80798 105.092 0C103.434 3.22292 101.934 7.07469 99.9596 10.3762C99.4859 11.2409 90.4848 11.8698 88.274 12.1056C90.4848 14.9355 94.5116 17.4509 96.4855 20.5166C96.9593 21.2241 94.3537 30.4212 94.5116 32.0719C98.1436 30.4998 101.776 28.5346 105.092 26.8838L115.751 32.6222L113.856 20.6738C113.382 17.9226 120.646 14.621 121.989 12.5772ZM96.8803 14.9355C94.7485 14.3066 92.6166 13.6777 90.4848 13.0489C91.2743 13.2847 92.6956 12.8917 93.4852 12.8917C95.1433 12.8131 96.8014 12.6558 98.5384 12.6558C98.9332 12.6558 100.197 14.0708 100.512 14.3852C101.46 15.1713 102.486 15.8788 103.197 16.822C100.986 16.429 98.9332 15.5643 96.8803 14.9355ZM101.381 21.8529C100.828 22.7962 100.275 23.7395 99.7228 24.6042C98.6174 26.4908 97.2751 28.2988 96.1697 30.1854C96.4855 29.6351 96.5645 28.456 96.7224 27.7485C97.0382 26.4122 97.433 25.0759 97.6699 23.7395C97.7488 23.4251 97.6699 22.4818 97.9068 22.3246C98.2226 22.3246 99.0122 21.5385 99.328 21.3027C99.8017 20.9883 100.354 20.5952 100.828 20.2808C101.539 19.8091 102.486 19.4161 103.118 18.7086C102.486 19.6519 101.934 20.9096 101.381 21.8529ZM105.329 6.68166C105.329 5.73836 105.408 4.87368 105.408 3.93039C105.408 3.69456 105.566 3.22291 105.408 2.90848C106.197 5.34532 106.908 7.78216 107.697 10.219C107.934 10.8479 107.303 11.6339 106.987 12.1842C106.592 12.8917 106.276 13.5991 105.881 14.3066C105.645 14.7782 104.934 15.7215 104.934 16.1932C105.092 13.0489 105.171 9.90457 105.329 6.68166ZM109.513 27.3555C108.645 26.8052 107.066 26.4908 106.513 25.6261C106.118 24.9186 106.197 23.5037 106.039 22.7176C105.881 21.6171 105.645 20.5166 105.408 19.4161C106.829 21.0669 108.092 22.8748 109.434 24.5256C110.145 25.4689 110.935 26.3336 111.645 27.2769C112.04 27.7485 112.356 28.2202 112.751 28.6132C113.067 29.0062 113.461 29.7137 113.856 29.9495C112.435 29.1635 111.014 28.2202 109.513 27.3555ZM113.935 17.2151C113.619 17.4509 113.224 17.6081 112.909 17.8439C112.04 18.3942 111.408 18.0798 110.54 17.8439C109.671 17.6867 108.803 17.4509 107.934 17.2937C107.382 17.1365 106.355 16.6648 105.802 16.822C108.487 16.2718 111.251 15.6429 113.935 15.1713C114.33 15.0927 118.041 14.621 118.751 14.1494C118.83 14.0708 118.83 14.0708 118.83 13.9922C118.83 14.0708 118.751 14.0708 118.751 14.1494C117.962 14.8569 116.856 15.3285 115.909 15.9574C115.277 16.3504 114.567 16.822 113.935 17.2151Z" fill="url(#paint0_linear)"/>
<path d="M87.4844 92.2856C86.6949 93.2288 86.9317 94.5652 86.6159 95.6657C86.1422 97.3951 85.6684 99.1244 84.563 100.539C83.8524 101.404 83.0628 102.19 81.8785 102.033C80.6152 101.876 79.9045 100.932 79.5098 99.8319C78.7991 98.1025 79.115 96.2945 79.1939 94.4866C79.1939 93.1502 79.3518 91.7353 79.036 90.399C78.9571 89.9273 78.7991 89.3771 78.2464 89.2985C77.6148 89.1412 77.299 89.6129 76.9831 90.0845C76.4304 90.9492 76.3515 91.9711 76.1936 92.993C75.7198 97.3164 76.7463 101.404 77.7727 105.492C77.9306 106.278 78.1675 106.985 78.2464 107.771C78.3254 108.4 78.1675 109.029 77.5358 109.265C76.8252 109.501 76.1936 109.186 75.8777 108.479C75.404 107.535 75.0092 106.514 74.5355 105.413C73.8248 107.221 73.1142 108.95 72.0088 110.444C69.0085 114.453 64.6658 115.553 60.0863 113.274C57.0859 111.78 54.9541 109.343 53.5328 106.356C49.4271 97.8667 47.69 88.984 49.9008 79.6297C50.1377 78.5292 49.8219 77.7431 48.9533 76.9571C45.7161 74.1272 44.9265 68.4674 47.1373 65.0087C47.6111 64.2226 48.1638 63.4365 49.1902 63.5151C50.2956 63.5937 50.7694 64.8515 50.1377 66.2664C49.1902 68.546 49.1112 70.747 50.2956 72.9481C50.5325 73.4197 50.6904 74.0486 51.3221 74.0486C51.8748 74.0486 51.8748 73.3411 52.1116 72.9481C53.6908 69.961 55.5068 67.2097 58.1913 65.0873C59.6126 63.9868 61.1917 63.2007 63.0077 62.8863C65.1396 62.4932 66.8766 63.5151 67.4293 65.5589C69.0874 71.4545 65.2975 79.4725 56.4543 79.7869C53.0591 79.9441 53.0591 79.8655 52.7433 83.2457C52.1116 89.6129 52.9802 95.8229 55.2699 101.876C56.2174 104.313 57.4807 106.514 59.3757 108.322C63.1656 111.937 67.982 111.309 70.8245 106.907C72.6405 104.155 73.3511 101.325 72.4036 97.9453C69.877 88.4338 70.4297 78.765 71.3772 69.1749C71.4561 68.7032 71.614 68.2316 71.772 67.8386C72.1667 66.8953 72.7984 66.1092 73.8248 66.1092C75.0092 66.1092 75.404 67.0525 75.6409 67.9958C76.8252 72.7908 76.9042 77.6645 76.5883 82.5382C76.5094 83.7959 76.4304 85.0536 76.3515 86.3114C79.7466 85.3681 82.1153 87.3333 82.5101 91.1064C82.747 93.7005 82.5891 96.2159 82.5891 98.8886C83.6155 98.6528 83.7734 97.7881 83.9314 97.1592C84.7999 93.3861 85.5105 89.6129 86.3001 85.8397C86.458 84.975 86.1422 84.8964 85.4315 84.7392C83.4576 84.2676 82.5891 83.0884 82.5101 80.966C82.4312 78.8436 83.6155 76.7998 85.1947 76.2496C87.0896 75.6207 88.6688 76.7212 88.7477 79.0008C88.7477 80.18 88.8267 80.8088 90.3269 80.8088C91.8271 80.7302 92.5377 81.8307 92.6956 83.2457C92.7746 84.3462 92.4587 85.3681 92.0639 86.39C91.1954 88.9054 90.8006 91.4995 90.5638 94.0935C90.4848 94.9582 90.4848 95.7443 91.0375 96.609C92.4587 95.7443 92.7746 94.2507 93.0114 92.8358C93.6431 89.7701 93.722 86.5472 94.7485 83.5601C95.1433 82.4596 95.1433 80.4944 96.8803 80.8088C98.8543 81.1233 98.1436 83.0098 97.9857 84.2676C97.6699 86.4686 96.9593 88.5124 96.4066 90.7134C96.1697 91.7353 95.9328 92.8358 96.0908 93.8577C96.2487 94.9582 97.0382 95.194 97.6699 94.408C99.1701 92.5214 100.512 90.5562 101.776 88.591C101.934 88.3552 101.697 87.8049 101.697 87.4119C101.46 84.8178 103.513 81.8307 105.881 81.2019C106.355 81.0447 106.829 80.8874 107.224 81.3591C107.54 81.8307 107.224 82.2238 106.829 82.6168C106.355 83.1671 105.802 83.6387 105.487 84.2676C104.46 85.9183 104.618 86.39 106.434 87.0188C107.776 87.4905 108.329 88.591 108.961 89.7701C111.487 86.783 113.777 83.7959 113.935 79.5511C111.408 79.6297 108.803 79.6297 106.355 78.765C103.829 77.9003 101.618 76.6426 101.065 73.7341C100.591 71.4545 101.539 69.961 103.75 69.4107C107.066 68.6246 110.145 69.8038 113.224 70.6684C116.383 71.6117 116.383 71.6903 117.567 68.546C117.962 67.4455 118.357 66.4236 119.067 65.4803C119.699 64.6156 120.567 64.4584 121.436 64.9301C122.305 65.4017 122.699 66.2664 122.305 67.2097C121.831 68.3888 121.199 69.4893 120.725 70.5898C120.489 71.0615 120.252 71.5331 120.094 72.0834C119.936 72.555 119.778 73.2625 120.252 73.5769C120.804 73.97 121.278 73.4983 121.673 73.1053C123.568 71.3759 125.068 69.4107 126.489 67.3669C126.963 66.6594 127.595 66.1092 127.674 65.1659C125.621 65.2445 123.963 64.6943 123.489 62.4932C123.41 61.943 123.015 62.1788 122.62 62.336C122.226 62.5718 121.752 62.7291 121.278 62.8863C120.015 63.2793 118.909 63.0435 117.962 62.1002C117.093 61.1569 116.856 60.0564 117.409 58.7987C118.436 56.2832 120.173 54.3966 121.989 52.4314C122.383 51.9598 123.094 51.5668 122.936 50.8593C122.857 50.3876 122.383 50.5449 122.068 50.4663C121.199 50.309 120.567 50.7021 120.173 51.4882C118.988 54.2394 117.172 56.5977 115.435 59.0345C114.883 59.8206 114.251 60.528 113.54 61.1569C112.672 61.943 111.566 62.8077 110.303 62.0216C108.961 61.2355 108.724 59.9778 109.119 58.5628C109.592 56.9121 110.145 55.2613 110.619 53.6106C110.856 52.7459 111.251 51.8812 110.777 50.7021C109.829 51.6454 109.592 52.7459 109.356 53.6892C108.487 56.6763 107.066 59.4275 105.329 62.0216C104.223 63.6723 102.881 64.6942 100.828 63.9082C100.118 63.6723 99.8807 64.0654 99.5649 64.4584C98.9332 65.3231 98.1436 66.0306 97.1962 66.6594C95.2222 67.9172 93.722 67.3669 93.0904 65.1659C92.5377 63.3579 92.4587 61.5499 92.6167 59.6634C93.0904 53.8464 92.7746 48.108 91.985 42.3697C91.8271 41.3478 91.8271 39.7756 90.7217 39.697C89.6163 39.6184 89.4584 41.2691 89.1425 42.2124C87.4055 47.6364 87.9582 53.0603 89.2215 58.4842C89.6952 60.6066 89.9321 62.7291 89.9321 64.8515C89.9321 66.2664 89.9321 67.9172 88.1161 67.9958C86.3001 68.0744 85.9842 66.5022 85.9842 65.0873C85.9842 60.9211 85.6684 56.7549 84.9578 52.6673C84.563 50.4663 84.2472 48.1866 83.5366 46.0642C83.3787 45.5926 83.2207 44.8851 82.5891 44.8851C81.9574 44.8851 81.7206 45.514 81.6416 46.0642C80.931 50.8593 79.5887 55.6544 81.4047 60.528C82.747 64.0654 83.1418 67.8386 83.7734 71.5331C83.8524 71.8476 83.8524 72.2406 83.8524 72.6336C83.8524 73.7341 83.3787 74.5202 82.1943 74.5988C81.0099 74.756 80.3783 74.0486 80.2204 72.9481C79.7466 70.2754 79.3518 67.5241 78.7202 64.8515C77.6148 59.4275 75.8777 54.1608 73.1932 48.9727C72.6405 50.7021 73.2721 52.1956 73.3511 53.6892C73.3511 54.0822 73.588 54.6325 73.1142 54.7897C72.6405 54.9469 72.4036 54.4752 72.1667 54.0822C71.1403 52.0384 70.5876 49.8374 71.1403 47.4792C71.614 45.514 73.1142 45.1209 74.6144 46.4573C75.8777 47.5578 76.7463 49.0513 77.6148 50.4663C78.0096 51.0951 78.1675 51.8812 78.9571 52.5101C79.2729 50.309 79.5098 48.1866 79.8256 46.1428C79.9045 45.5926 80.0625 44.9637 80.2204 44.4135C80.5362 43.3916 81.1679 42.6055 82.2733 42.3697C83.4576 42.1338 84.2472 42.8413 84.7999 43.706C85.5105 44.7279 86.0632 45.8284 86.8528 47.1647C87.0107 45.5926 87.1686 44.1776 87.4055 42.7627C87.5634 41.4264 87.8792 40.1686 88.5109 38.9895C89.8531 36.7099 91.906 36.5527 93.6431 38.5965C95.1433 40.4045 95.617 42.6055 95.9328 44.8851C96.4855 49.4444 96.5645 54.0822 96.1697 58.6415C96.0118 60.2922 96.0118 61.943 96.4066 63.5937C96.4855 63.9868 96.5645 64.537 96.9593 64.6156C97.1962 64.6942 97.512 64.3012 97.7489 64.0654C98.6174 63.2007 98.9332 62.1788 98.3016 60.9997C96.7224 57.8554 97.433 54.8683 98.7753 51.8812C99.328 50.7021 100.197 49.6802 101.697 49.9946C103.197 50.309 103.434 51.724 103.513 52.9817C103.592 55.2613 102.96 57.4623 102.17 59.5847C101.934 60.135 101.223 60.9997 102.17 61.4713C103.118 61.943 103.75 61.2355 104.223 60.528C105.881 57.934 107.066 55.1827 108.013 52.2742C108.25 51.6454 108.171 51.2523 107.54 51.0165C105.881 50.3876 105.329 49.0513 105.171 47.4792C104.934 45.1209 105.566 42.9985 106.987 41.1119C107.54 40.3259 108.408 39.697 109.435 39.9328C110.54 40.09 110.935 41.0333 111.172 41.9766C111.566 43.706 111.408 45.4354 111.172 47.1647C111.093 47.715 110.777 48.3438 111.724 48.5797C113.303 48.9727 113.54 50.309 113.619 51.6454C113.777 54.1608 112.988 56.5977 112.514 59.1131C112.988 59.2703 113.146 58.8773 113.303 58.6415C114.962 56.2832 116.62 54.0036 118.278 51.6454C118.751 51.0165 118.988 50.5449 118.12 49.916C116.699 48.8941 116.541 47.4006 117.014 45.7498C117.646 43.9418 118.515 42.2911 120.489 41.7408C121.831 41.3478 122.857 42.0552 123.094 43.4702C123.173 44.0204 123.173 44.7279 123.015 45.1995C122.383 46.8503 121.673 48.3438 124.357 49.0513C125.621 49.4444 125.858 51.8812 124.91 53.3747C124.278 54.3966 123.489 55.2613 122.778 56.2046C122.226 56.8335 121.673 57.4623 121.199 58.1698C120.725 58.9559 119.857 59.742 120.567 60.6853C120.962 61.2355 123.41 60.528 123.884 59.6634C124.357 58.7987 124.673 57.934 124.989 56.9907C125.858 54.7111 126.963 52.5101 128.621 50.7021C129.253 49.9946 130.042 49.3657 130.99 49.9946C131.937 50.6235 131.621 51.5668 131.227 52.4314C130.437 54.2394 129.174 55.733 128.068 57.4623C127.279 58.7201 126.489 59.9778 126.016 61.3927C125.858 62.0216 125.7 62.5718 126.252 63.0435C126.884 63.5151 127.516 63.3579 128.068 63.0435C128.937 62.5718 129.569 61.7858 130.121 61.0783C131.779 58.9559 133.122 56.5977 133.99 54.0822C134.543 52.6673 135.096 51.3309 135.964 50.0732C136.517 49.3657 137.148 48.5011 138.175 48.9727C139.28 49.4444 139.122 50.5449 138.807 51.4882C138.57 52.2742 138.333 53.0603 137.938 53.8464C135.254 59.2703 132.411 64.6942 129.095 69.8037C127.832 71.6903 126.331 73.3411 124.278 75.2277C135.254 77.9003 145.676 77.8217 155.782 73.6555C155.782 73.4983 155.782 73.3411 155.703 73.1839C154.914 73.3411 154.124 73.5769 153.335 73.6555C152.782 73.7341 152.15 73.8127 151.756 73.1839C151.44 72.555 151.835 72.162 152.15 71.6903C152.624 70.9043 153.098 70.0396 153.098 68.7032C149.94 71.2187 146.939 73.7341 142.833 74.8346C143.386 73.7341 144.176 73.4197 144.807 73.0267C147.729 71.0615 150.334 68.8605 152.308 65.952C152.545 65.6375 152.782 65.2445 153.098 64.9301C153.572 64.3798 154.203 64.144 154.914 64.3798C155.703 64.6156 155.861 65.2445 155.94 65.8734C156.098 67.2883 155.782 68.6246 155.388 69.961C155.072 71.0615 155.23 71.3759 156.414 70.9829C158.309 70.354 160.125 69.6465 161.862 68.6246C162.494 68.3102 163.283 67.5241 163.915 68.3102C164.626 69.0963 163.757 69.8824 163.283 70.5112C160.994 73.3411 158.151 75.5421 154.756 76.7998C147.966 79.3153 141.096 81.1233 133.753 80.4158C129.963 80.1014 126.252 79.3939 122.778 77.979C120.252 76.9571 118.278 77.8217 117.488 80.4158C116.304 84.2676 115.277 88.198 114.172 92.1283C113.935 92.993 113.619 93.8577 113.382 94.7224C113.303 95.0368 113.067 95.4299 113.382 95.7443C113.777 96.1373 114.172 95.8229 114.567 95.6657C116.067 95.194 116.856 93.9363 117.488 92.6786C118.278 91.0278 118.909 89.2985 119.699 87.5691C120.173 86.4686 120.725 85.3681 121.594 84.5034C122.226 83.8745 122.936 83.1671 123.331 84.6606C123.647 85.6039 124.042 84.8964 124.357 84.7392C125.7 84.0317 126.963 83.7959 127.91 85.3681C128.147 85.8397 128.463 85.7611 128.937 85.6825C130.753 85.1322 131.543 85.6039 132.174 87.3333C132.727 88.984 132.569 90.6348 132.016 92.2069C131.464 93.8577 130.832 95.5085 130.121 97.3951C131.306 97.002 131.306 96.1373 131.621 95.5085C132.885 92.7572 134.859 90.792 137.622 89.6915C138.728 89.2985 139.912 89.0626 140.781 90.0845C141.254 90.6348 141.57 90.5562 142.123 90.2417C142.991 89.7701 144.018 89.5343 144.649 90.5562C145.281 91.5781 144.176 91.9711 143.702 92.6C142.123 94.408 141.254 96.5304 140.228 98.6528C140.07 98.9672 140.07 99.4389 140.228 99.6747C140.544 100.068 141.017 99.8319 141.333 99.6747C143.623 98.7314 145.518 97.1592 147.492 95.7443C148.202 95.194 148.124 94.408 148.124 93.6219C148.045 91.8925 148.202 90.1631 148.834 88.5124C149.308 87.3333 149.94 86.2328 151.124 85.6039C152.387 84.8964 153.808 84.7392 154.993 85.6825C156.256 86.7044 156.335 88.1193 155.703 89.6129C155.151 91.0278 154.045 91.9711 153.019 92.9144C151.756 94.0935 151.124 96.7662 151.677 98.2597C151.992 99.0458 152.387 98.5742 152.861 98.4956C155.151 97.9453 157.44 97.8667 159.73 98.7314C160.204 98.8886 160.678 99.0458 160.994 99.2816C161.704 99.7533 162.178 100.382 161.783 101.247C161.388 102.112 160.678 102.269 159.809 102.033C157.835 101.483 155.782 101.404 153.729 101.561C152.15 101.64 151.282 102.19 150.887 103.841C150.019 107.457 148.439 110.837 146.229 113.824C145.202 115.239 143.939 116.418 142.281 117.047C140.465 117.676 138.807 117.361 137.464 116.025C136.122 114.767 135.885 113.195 136.438 111.387C136.754 110.365 137.227 109.422 138.017 108.557C140.465 105.806 143.228 103.369 146.386 101.64C148.124 100.697 148.439 99.5961 147.887 97.7095C146.623 98.7314 145.597 99.7533 144.413 100.618C142.123 102.347 139.754 103.369 137.07 101.404C136.596 101.011 136.043 101.247 135.49 101.247C134.701 101.247 133.832 101.404 133.201 100.854C131.937 99.7533 130.674 99.1244 128.937 99.2816C127.91 99.3602 127.358 98.3383 127.358 97.2378C127.279 95.9015 127.753 94.801 128.384 93.7005C129.174 92.2069 130.121 90.792 130.516 89.1412C130.674 88.4338 130.753 87.6477 129.884 87.3333C129.095 87.0188 128.779 87.8049 128.384 88.3552C127.437 89.9273 127.121 91.6567 126.647 93.3861C126.252 94.801 125.779 96.2159 124.989 97.5523C124.436 98.417 123.805 99.203 122.699 98.7314C121.673 98.3383 121.673 97.3164 121.91 96.4518C122.383 93.9363 123.489 91.7353 124.752 89.5343C125.226 88.6696 125.858 87.8835 125.779 86.2328C124.121 87.9621 122.541 89.0626 121.831 91.1064C121.12 93.1502 120.331 95.1154 119.541 97.0806C118.751 98.81 117.804 98.8886 116.856 97.3164C116.462 96.609 116.146 97.002 115.751 97.1592C114.409 97.7881 112.988 98.2597 111.724 97.2378C110.382 96.2159 110.619 94.7224 110.935 93.2288C111.172 92.0497 111.566 90.9492 111.645 89.6129C110.303 91.4209 108.882 93.1502 107.54 94.9582C105.802 97.0806 103.276 98.2597 101.302 97.3164C99.7228 96.609 98.5384 96.0587 97.0382 97.3164C96.8014 97.5523 96.0908 97.5523 95.8539 97.3164C94.3537 95.9801 93.801 97.1592 93.0114 98.1811C91.2744 100.304 88.8267 99.8319 87.8792 97.2378C87.0896 95.5085 87.3265 93.8577 87.4844 92.2856C88.1161 89.6915 88.7477 87.176 90.0111 84.8964C90.2479 84.4248 90.5638 83.6387 89.7742 83.4029C89.2215 83.2457 88.5898 83.7959 88.5109 84.4248C88.1161 87.0188 87.3265 89.6129 87.4844 92.2856ZM57.007 76.9571C61.3496 76.9571 65.1396 73.97 66.4029 69.7251C67.0345 67.6813 66.7187 65.7948 65.5343 65.1659C63.7973 64.2226 62.455 65.3231 61.1917 66.2664C61.1127 66.345 61.0338 66.4236 60.9548 66.5022C58.2703 68.9391 56.4543 72.0048 55.033 75.3063C54.6383 76.2496 54.7962 76.7998 55.9016 76.8784C56.2174 76.8784 56.6911 76.8784 57.007 76.9571ZM111.961 77.8217C112.514 77.7431 113.303 77.6645 114.014 77.5073C115.277 77.1929 115.277 76.0138 115.593 75.1491C115.909 74.2844 115.04 73.8913 114.409 73.5769C112.593 72.7122 110.777 71.7689 108.961 70.9829C108.013 70.5112 106.908 70.2754 105.802 70.4326C104.697 70.5898 103.513 70.9829 103.039 72.162C102.565 73.4197 103.355 74.363 104.223 75.1491C106.434 77.0357 109.04 77.5859 111.961 77.8217ZM147.808 103.448C144.886 105.02 142.36 106.514 140.307 108.636C139.675 109.343 139.043 110.051 138.649 110.916C138.333 111.702 138.254 112.409 138.807 113.117C139.359 113.745 140.149 113.903 140.938 113.667C141.491 113.51 142.044 113.195 142.518 112.881C145.518 110.523 147.097 107.457 147.808 103.448ZM135.885 98.7314C136.517 98.7314 136.991 98.4956 137.306 97.8667C138.254 96.0587 139.201 94.3294 140.149 92.5214C140.386 92.1283 140.859 91.5781 140.307 91.1064C139.754 90.6348 139.122 90.9492 138.649 91.3423C136.675 92.9144 135.49 95.0368 134.701 97.3164C134.385 98.2597 134.859 98.7314 135.885 98.7314ZM74.2986 69.8037C73.9038 75.7779 73.8248 81.6735 74.6144 87.5691C75.1671 81.5949 76.2725 75.6207 74.2986 69.8037ZM100.197 94.1721C102.565 94.6438 104.223 93.9363 105.329 92.2856C105.881 91.4209 105.802 90.5562 104.934 89.9273C104.065 89.2985 103.434 89.6129 102.881 90.4776C102.092 91.6567 101.223 92.8358 100.197 94.1721ZM108.961 48.5797C109.592 46.3786 109.75 44.4135 110.066 42.4483C110.145 42.0552 110.066 41.7408 109.671 41.5836C109.198 41.4264 108.882 41.6622 108.645 42.0552C107.618 43.313 107.697 46.7717 108.961 48.5797ZM151.677 92.2069C152.94 91.4209 153.729 90.5562 154.44 89.4557C154.835 88.8268 154.993 88.0407 154.203 87.6477C153.414 87.2547 152.703 87.4119 152.229 88.2766C151.598 89.4557 151.519 90.7134 151.677 92.2069ZM100.749 58.327C101.697 56.3618 102.013 54.6325 101.618 52.4314C100.591 54.3966 100.512 56.2046 100.749 58.327ZM86.7738 78.9222C86.0632 79.3153 85.9053 79.9441 85.9053 80.4944C85.9053 81.0447 85.8263 81.8307 86.6159 81.8307C87.5634 81.9093 87.3265 81.1233 87.3265 80.573C87.3265 80.0227 87.2476 79.3939 86.7738 78.9222ZM121.436 43.706C120.015 45.1995 119.857 45.8284 120.489 47.2433C121.041 46.2214 121.515 45.1995 121.436 43.706Z" fill="#E31C79"/>
<path d="M96.2487 73.97C96.1697 73.1053 96.4855 72.555 97.3541 72.3192C98.2226 72.162 98.8542 72.4764 99.1701 73.3411C99.4859 74.1272 99.4859 74.9919 99.249 75.778C99.0122 76.6427 98.6174 77.6645 97.6699 77.6645C96.8014 77.6645 97.1172 76.564 96.8014 75.9352C96.4855 75.3849 96.1697 74.6775 96.2487 73.97Z" fill="#E31C79"/>
<path d="M180.022 151.477C179.47 151.87 178.522 151.32 178.285 150.927C177.654 149.984 177.496 149.119 177.022 148.176C176.39 148.647 175.759 148.962 174.969 148.804C174.101 148.647 173.627 148.097 172.995 147.468C172.916 148.883 171.021 149.512 169.916 149.748C169.6 149.826 169.679 149.748 169.6 149.826C169.284 149.984 169.442 150.219 169.6 150.455C169.758 150.612 170.074 150.612 170.232 150.691C171.337 150.927 172.206 151.084 172.916 152.027C174.18 151.084 174.337 152.813 174.495 153.757C174.574 153.285 175.68 153.364 175.759 153.521C176.469 154.071 176.39 154.7 176.627 155.486C177.812 154.779 179.943 155.643 181.207 155.958C180.022 154.386 179.47 153.285 180.022 151.477Z" fill="#00B252"/>
<path d="M171.811 150.691C169.442 150.298 167.231 150.377 164.942 151.32C164.705 151.399 164.468 151.005 164.784 150.927C167.073 149.984 169.363 149.905 171.89 150.298C172.127 150.298 172.048 150.691 171.811 150.691Z" fill="#00B252"/>
<path d="M203.394 112.723C202.999 113.509 201.657 113.431 201.104 113.116C199.841 112.409 199.209 111.466 198.182 110.601C197.788 111.544 197.235 112.252 196.209 112.488C195.182 112.802 194.314 112.409 193.287 112.095C193.998 113.824 192.182 115.632 191.076 116.575C190.761 116.89 190.839 116.732 190.761 116.89C190.524 117.283 190.839 117.518 191.076 117.597C191.392 117.676 191.629 117.518 191.866 117.44C193.208 117.047 194.314 116.732 195.577 117.44C196.445 115.632 197.63 117.597 198.34 118.54C198.183 117.912 199.446 117.44 199.604 117.518C200.709 117.833 201.025 118.54 201.657 119.326C202.604 117.754 205.447 117.597 207.105 117.204C205.131 116.182 203.788 115.239 203.394 112.723Z" fill="#00B252"/>
<path d="M193.84 116.575C190.918 117.519 188.471 118.933 186.576 121.292C186.339 121.528 185.865 121.213 186.102 120.977C188.076 118.54 190.603 117.047 193.603 116.104C193.919 115.946 194.156 116.418 193.84 116.575Z" fill="#00B252"/>
<path d="M204.104 106.749C204.025 106.907 204.025 107.064 204.025 107.221C203.394 106.907 202.604 106.828 201.972 107.221C201.341 107.535 200.946 108.243 200.867 108.95C200.235 108.557 199.604 108.243 198.893 108.164C198.183 108.086 197.393 108.4 197.156 109.108C197.077 109.343 196.919 109.658 196.682 109.579C196.603 109.579 196.524 109.501 196.445 109.422C195.814 108.793 191.471 107.3 190.918 108.086C191.076 107.85 193.603 104.312 192.813 104.155C194.393 104.391 196.288 104.077 196.919 102.662C198.34 104.155 201.025 104.077 202.446 102.583C202.367 102.662 204.578 103.212 204.736 103.212C205.604 103.291 206.473 102.898 207.342 103.133C206.473 104.548 204.657 105.02 204.104 106.749Z" fill="#00B252"/>
<path d="M199.92 128.759C199.841 128.995 199.762 129.231 199.683 129.467C198.814 128.917 197.709 128.838 196.761 129.31C195.814 129.781 195.103 130.725 195.024 131.825C194.235 131.275 193.366 130.646 192.34 130.489C191.313 130.332 190.208 130.725 189.734 131.747C189.576 132.061 189.339 132.611 189.023 132.454C188.866 132.454 188.787 132.297 188.708 132.218C187.839 131.275 181.917 128.681 180.891 129.781C181.128 129.467 185.234 124.279 184.128 124.043C186.339 124.515 189.102 124.2 190.129 122.078C191.945 124.436 195.814 124.515 198.025 122.392C197.946 122.471 200.946 123.571 201.262 123.571C202.446 123.729 203.867 123.257 204.973 123.729C203.552 125.615 200.946 126.165 199.92 128.759Z" fill="#00B252"/>
<path d="M178.838 107.535C179.154 107.378 179.943 108.086 180.101 108.321C180.338 108.793 180.101 109.501 179.943 109.972C180.575 109.894 181.207 110.208 181.523 110.68C181.838 111.151 181.838 111.702 181.602 112.173C181.917 111.466 183.891 113.195 183.97 113.352C183.97 113.431 184.049 113.431 184.128 113.51C184.286 113.588 184.444 113.431 184.523 113.352C184.523 113.195 184.523 113.117 184.444 112.959C184.128 112.252 184.128 111.466 184.365 110.758C183.418 110.837 183.654 108.872 183.97 108.479C183.812 108.715 182.786 107.928 182.707 107.85C182.312 107.457 182.154 106.907 182.233 106.435C182.154 106.985 179.549 105.099 179.391 105.02C179.47 105.649 179.864 107.064 178.838 107.535Z" fill="#00B252"/>
<path d="M189.576 112.645C187.05 121.763 182.312 129.939 176.706 137.485C176.469 137.799 175.996 137.485 176.232 137.171C181.838 129.703 186.576 121.528 189.023 112.488C189.102 112.095 189.655 112.33 189.576 112.645Z" fill="#00B252"/>
<path d="M176.548 110.916C175.759 111.859 176.706 113.588 177.338 114.139C178.996 115.475 180.575 115.711 182.233 116.654C181.286 117.755 180.733 118.855 180.97 120.427C181.207 121.999 182.233 122.943 183.181 124.043C180.496 124.043 179.312 127.502 178.759 129.546C178.601 130.175 178.759 129.939 178.601 130.175C178.206 130.646 177.812 130.41 177.496 130.096C177.18 129.781 177.259 129.31 177.18 128.917C176.864 126.873 176.627 125.301 175.048 123.965C176.864 121.764 173.706 121.292 172.048 120.899C172.916 120.82 172.837 118.855 172.679 118.541C171.653 117.204 170.469 117.204 169.205 116.733C170.627 114.61 169.126 110.68 168.732 108.243C171.179 110.601 173.153 111.78 176.548 110.916Z" fill="#00B252"/>
<path d="M178.048 125.851C178.522 130.332 178.206 134.577 176.232 138.743C175.996 139.214 175.285 138.9 175.522 138.428C177.417 134.419 177.812 130.41 177.338 126.008C177.259 125.537 178.048 125.38 178.048 125.851Z" fill="#00B252"/>
<path d="M160.52 170.422C159.572 171.05 158.072 170.029 157.677 169.4C156.651 167.827 156.572 166.413 155.94 164.762C154.835 165.548 153.809 165.862 152.466 165.548C151.124 165.155 150.256 164.212 149.387 163.19C149.15 165.548 145.913 166.334 144.018 166.648C143.465 166.727 143.623 166.648 143.465 166.727C142.991 167.041 143.149 167.434 143.465 167.749C143.702 168.063 144.176 168.063 144.492 168.142C146.308 168.614 147.729 169.007 148.755 170.579C150.887 169.164 151.045 172.072 151.203 173.566C151.361 172.78 153.098 173.016 153.335 173.251C154.44 174.273 154.282 175.295 154.598 176.553C156.651 175.452 160.046 177.182 162.178 177.811C160.283 175.217 159.415 173.33 160.52 170.422Z" fill="#00B252"/>
<path d="M147.097 168.299C143.228 167.434 139.517 167.356 135.727 168.613C135.333 168.771 135.017 168.142 135.412 167.985C139.359 166.648 143.07 166.727 147.097 167.592C147.65 167.67 147.571 168.378 147.097 168.299Z" fill="#00B252"/>
<path d="M182.786 94.3293C182.549 95.2726 183.97 96.2945 184.602 96.5303C186.181 97.2378 187.444 97.3164 188.945 97.7094C188.392 98.8885 188.471 99.9104 189.024 101.09C189.576 102.269 190.366 103.212 191.392 103.998C189.418 104.391 189.103 107.535 189.024 109.108C189.024 109.579 189.103 109.422 189.024 109.579C188.787 109.972 188.471 109.815 188.234 109.658C187.997 109.501 187.918 109.108 187.839 108.872C187.287 107.378 186.892 105.963 185.549 104.941C186.418 102.898 183.97 102.583 182.391 102.504C183.102 102.19 182.391 100.697 182.154 100.539C181.049 99.596 180.18 100.068 178.996 100.225C179.233 98.4955 176.627 96.6875 175.601 95.5084C178.206 95.98 180.496 95.587 182.786 94.3293Z" fill="#00B252"/>
<path d="M187.997 106.435C188.945 109.658 189.418 112.723 188.55 116.104C188.471 116.497 187.918 116.261 187.997 115.868C188.787 112.645 188.392 109.658 187.444 106.513C187.286 106.199 187.839 106.042 187.997 106.435Z" fill="#00B252"/>
<path d="M168.968 130.41C168.574 131.039 169.442 132.061 169.837 132.375C170.784 133.162 171.732 133.476 172.758 134.026C172.127 134.812 172.048 135.52 172.206 136.463C172.364 137.406 172.837 138.192 173.39 138.978C171.89 138.9 171.1 141.101 170.784 142.201C170.705 142.516 170.784 142.437 170.705 142.516C170.469 142.752 170.232 142.594 170.074 142.437C169.916 142.28 169.916 141.966 169.916 141.808C169.758 140.629 169.758 139.529 168.968 138.585C169.916 137.249 168.258 136.62 167.152 136.306C167.705 136.227 167.468 134.969 167.389 134.812C166.758 133.948 166.126 134.105 165.178 134.026C165.652 132.847 164.152 131.039 163.599 130.017C165.415 130.725 167.152 130.882 168.968 130.41Z" fill="#00B252"/>
<path d="M170.469 140C170.547 142.516 170.311 144.795 169.126 146.996C168.968 147.232 168.653 146.996 168.81 146.761C169.995 144.638 170.232 142.359 170.074 140C170.074 139.686 170.469 139.764 170.469 140Z" fill="#00B252"/>
<path d="M193.761 67.8385C193.919 67.9171 194.077 67.9958 194.314 68.0744C193.761 68.7032 193.524 69.6465 193.84 70.5112C194.077 71.2973 194.787 72.0047 195.656 72.162C195.103 72.7908 194.472 73.4983 194.235 74.2844C193.998 75.0704 194.156 76.0923 194.945 76.564C195.182 76.7212 195.577 76.957 195.419 77.1929C195.34 77.2715 195.261 77.3501 195.182 77.4287C194.314 78.0575 191.55 82.8526 192.261 83.7173C192.024 83.4815 188.313 79.6297 187.997 80.573C188.629 78.765 188.708 76.4068 187.129 75.3849C189.26 74.0485 189.813 70.8256 188.313 68.8604C188.392 68.939 189.576 66.5022 189.655 66.2664C189.892 65.2445 189.655 64.0654 190.208 63.2007C191.629 64.537 191.787 66.738 193.761 67.8385Z" fill="#00B252"/>
<path d="M209.158 90.5562C209.158 90.792 209.158 91.0278 209.237 91.2636C208.289 91.0278 207.184 91.4209 206.473 92.1283C205.762 92.9144 205.526 94.0935 205.762 95.1154C204.815 94.8796 203.789 94.6438 202.762 94.8796C201.815 95.1154 200.867 95.9015 200.788 97.002C200.788 97.395 200.788 97.8667 200.393 97.9453C200.235 97.9453 200.156 97.8667 199.999 97.8667C198.814 97.3164 192.34 97.0806 191.866 98.4956C192.024 98.1025 193.84 91.7353 192.735 91.9711C194.945 91.6567 197.393 90.3204 197.63 87.9621C200.235 89.4557 203.867 88.1193 205.052 85.2895C204.973 85.4467 208.21 85.2895 208.526 85.2109C209.71 84.8964 210.816 83.9531 212 83.9531C211.368 86.2327 209.158 87.7263 209.158 90.5562Z" fill="#00B252"/>
<path d="M191.392 79.3152C193.129 84.5033 192.971 90.3203 192.656 95.7442C192.261 101.404 191.471 107.3 189.576 112.645C189.418 112.959 188.945 112.802 189.024 112.409C190.84 107.221 191.629 101.718 192.024 96.2945C192.419 90.7919 192.577 84.8964 190.84 79.5511C190.761 79.2366 191.234 79.0008 191.392 79.3152Z" fill="#00B252"/>
<path d="M180.259 80.0227C179.864 80.8874 181.286 81.9879 181.917 82.1451C183.339 82.6168 184.76 82.3023 186.181 82.3023C185.865 83.4815 186.102 84.4247 187.05 85.2894C187.997 86.0755 189.181 86.3899 190.366 86.4685C188.708 87.176 190.287 90.6347 190.839 91.6566C190.997 91.9711 190.997 91.8925 191.076 92.0497C191.076 92.4427 190.761 92.5999 190.445 92.5213C190.129 92.4427 189.892 92.2069 189.655 91.9711C188.392 90.792 187.05 90.0845 185.234 89.9273C185.549 87.8049 182.075 88.2765 180.812 88.5123C181.444 88.0407 180.259 86.5471 180.022 86.3899C178.917 85.6039 177.891 85.6825 176.706 85.7611C177.417 84.975 174.653 81.2804 174.022 80.3371C176.153 81.1232 178.206 81.6735 180.259 80.0227Z" fill="#00B252"/>
<path d="M187.208 88.591C190.05 90.5562 191.945 93.4647 192.656 96.8448C192.735 97.2379 192.182 97.3165 192.103 96.9234C191.392 93.7005 189.576 90.9492 186.892 89.0626C186.576 88.8268 186.892 88.3552 187.208 88.591Z" fill="#00B252"/>
<path d="M190.761 146.289C190.682 146.446 190.524 146.682 190.445 146.839C189.734 146.21 188.708 145.896 187.76 146.132C186.813 146.368 186.023 147.154 185.786 148.018C185.076 147.311 184.365 146.682 183.497 146.368C182.628 146.053 181.444 146.21 180.891 146.996C180.733 147.311 180.417 147.704 180.101 147.547C180.022 147.468 179.943 147.39 179.865 147.311C179.233 146.289 174.022 142.909 172.995 143.695C173.311 143.459 177.812 139.529 176.785 139.136C178.759 140 181.365 140.158 182.628 138.507C184.049 140.944 187.602 141.73 189.892 140.158C189.734 140.236 192.419 141.73 192.735 141.808C193.84 142.201 195.182 141.966 196.13 142.594C194.551 144.167 192.024 144.167 190.761 146.289Z" fill="#00B252"/>
<path d="M173.074 164.526C172.916 164.683 172.758 164.919 172.6 165.076C172.048 164.212 171.021 163.74 169.995 163.897C168.968 163.976 167.942 164.683 167.468 165.627C166.915 164.762 166.363 163.897 165.494 163.426C164.626 162.954 163.362 162.875 162.652 163.661C162.415 163.897 162.02 164.29 161.704 164.054C161.625 163.976 161.546 163.819 161.546 163.74C161.073 162.561 156.493 158.002 155.151 158.63C155.467 158.473 161.231 155.014 160.283 154.386C162.099 155.643 164.863 156.351 166.6 154.779C167.468 157.609 171.021 159.102 173.864 157.844C173.706 157.923 176.153 159.967 176.469 160.124C177.575 160.674 178.996 160.753 179.864 161.539C177.575 162.875 174.969 162.482 173.074 164.526Z" fill="#00B252"/>
<path d="M162.889 137.406C162.02 137.642 161.941 139.371 162.178 140C162.652 141.415 163.757 142.28 164.626 143.459C163.52 143.931 162.889 144.717 162.81 145.896C162.731 147.154 163.205 148.254 163.836 149.276C162.257 148.333 160.441 151.713 159.888 152.813C159.73 153.128 159.809 153.128 159.651 153.206C159.336 153.442 159.02 153.206 158.862 152.971C158.704 152.656 158.783 152.342 158.862 152.027C159.02 150.298 158.783 148.804 157.835 147.311C159.73 146.289 157.283 143.852 156.256 142.909C156.967 143.145 157.441 141.258 157.441 141.022C157.362 139.686 156.73 138.9 155.94 137.957C156.967 138.114 158.309 133.633 158.704 132.533C159.573 134.812 160.362 136.777 162.889 137.406Z" fill="#00B252"/>
<path d="M176.153 138.743C171.732 146.289 164.073 152.263 156.967 157.294C149.466 162.639 140.781 167.906 131.543 169.557C131.148 169.636 131.069 169.085 131.464 169.007C140.781 167.356 149.545 161.932 157.125 156.508C163.915 151.634 171.337 145.817 175.68 138.428C175.838 138.114 176.311 138.428 176.153 138.743Z" fill="#00B252"/>
<path d="M160.283 148.962C160.362 152.42 159.257 155.565 156.967 158.159C156.73 158.473 156.256 158.08 156.493 157.844C158.704 155.329 159.73 152.263 159.651 148.883C159.651 148.49 160.283 148.569 160.283 148.962Z" fill="#00B252"/>
<path d="M151.677 146.446C150.966 147.468 150.808 148.647 150.966 149.905C151.124 151.084 151.677 151.791 152.308 152.578C151.835 153.521 151.519 154.464 151.756 155.486C151.993 156.508 152.703 157.058 153.019 158.001C151.203 159.888 148.992 160.831 147.413 163.19C147.334 163.268 147.334 163.347 147.255 163.425C147.176 163.504 147.018 163.425 146.939 163.425C146.623 163.347 146.387 163.347 146.071 163.268C145.913 163.268 145.439 162.168 145.281 161.932C144.965 161.617 144.65 161.303 144.334 160.91C143.544 159.967 142.676 159.181 141.728 158.473C143.149 157.373 143.86 155.643 142.991 153.914C144.097 153.442 144.65 153.049 144.807 151.556C144.965 150.612 144.413 149.669 143.939 148.883C143.781 148.569 143.465 148.254 143.149 148.254C144.886 146.682 145.597 144.874 146.623 142.673C147.255 143.695 147.65 144.167 148.755 144.953C149.229 145.188 150.887 146.839 151.677 146.446Z" fill="#00B252"/>
<path d="M183.812 112.645C185.313 115.003 184.128 118.541 186.418 120.427C186.655 120.663 186.418 121.056 186.102 120.82C183.575 118.855 184.918 115.396 183.339 112.959C183.26 112.645 183.654 112.331 183.812 112.645Z" fill="#00B252"/>
<path d="M31.0301 151.398C31.5828 151.791 32.5303 151.241 32.7672 150.927C33.4778 149.983 33.5567 149.119 34.0305 148.254C34.6621 148.726 35.2938 149.04 36.0834 148.883C36.9519 148.726 37.4256 148.175 38.0573 147.625C38.0573 149.04 40.0312 149.669 41.1366 149.905C41.4525 149.983 41.3735 149.905 41.4525 149.983C41.7683 150.141 41.6104 150.377 41.4525 150.612C41.2945 150.77 40.9787 150.77 40.8208 150.77C39.7154 151.005 38.8469 151.163 38.1363 152.027C36.8729 151.084 36.715 152.813 36.4782 153.757C36.3992 153.285 35.3728 153.364 35.2148 153.442C34.5042 153.992 34.5042 154.621 34.2674 155.407C33.083 154.7 30.9512 155.565 29.6089 155.8C30.9512 154.307 31.5039 153.285 31.0301 151.398Z" fill="#00B252"/>
<path d="M39.2418 150.77C41.6105 150.455 43.8213 150.534 46.111 151.477C46.3479 151.556 46.5848 151.163 46.2689 151.084C43.9792 150.062 41.6894 149.984 39.1628 150.298C38.9259 150.377 38.9259 150.77 39.2418 150.77Z" fill="#00B252"/>
<path d="M8.21159 112.33C8.60638 113.117 9.94865 113.038 10.4224 112.723C11.6857 112.016 12.3174 111.073 13.3438 110.287C13.7386 111.23 14.2913 111.937 15.3177 112.252C16.3442 112.566 17.2127 112.173 18.2392 111.859C17.4496 113.588 19.2656 115.396 20.371 116.339C20.6868 116.654 20.6079 116.497 20.6868 116.654C20.9237 117.047 20.6079 117.283 20.292 117.361C19.9762 117.44 19.7393 117.283 19.5025 117.204C18.1602 116.811 17.1337 116.497 15.7915 117.125C14.9229 115.318 13.7386 117.204 13.028 118.226C13.1859 117.597 12.0015 117.125 11.7647 117.125C10.6593 117.361 10.3434 118.147 9.63282 118.855C8.76429 117.283 5.84288 117.125 4.26373 116.654C6.47453 115.789 7.73785 114.846 8.21159 112.33Z" fill="#00B252"/>
<path d="M17.6866 116.261C20.529 117.204 22.9767 118.698 24.9506 121.056C25.1875 121.37 25.6612 121.056 25.4244 120.741C23.4504 118.304 21.0028 116.732 18.0024 115.71C17.6076 115.71 17.3707 116.182 17.6866 116.261Z" fill="#00B252"/>
<path d="M7.57986 106.356C7.65881 106.513 7.65881 106.671 7.65881 106.828C8.29047 106.513 9.08004 106.513 9.7117 106.828C10.3434 107.142 10.7381 107.85 10.7381 108.557C11.3698 108.243 12.0015 107.85 12.7121 107.771C13.4227 107.693 14.2123 108.007 14.4491 108.715C14.5281 108.95 14.607 109.265 14.9229 109.265C15.0018 109.265 15.0808 109.186 15.1597 109.108C15.7914 108.479 20.134 107.064 20.7657 107.85C20.6078 107.614 18.1601 103.998 18.9497 103.919C17.3705 104.155 15.4756 103.762 14.9229 102.347C13.5016 103.762 10.8171 103.684 9.39587 102.19C9.47483 102.269 7.26403 102.819 7.02716 102.819C6.15863 102.898 5.2901 102.505 4.42157 102.74C5.2901 104.077 7.10611 104.548 7.57986 106.356Z" fill="#00B252"/>
<path d="M11.4488 128.445C11.5277 128.681 11.6067 128.917 11.6857 129.152C12.5542 128.602 13.6596 128.524 14.6071 128.995C15.5546 129.467 16.1862 130.489 16.3441 131.511C17.2127 130.96 18.0022 130.332 19.0287 130.174C20.0551 130.017 21.1605 130.489 21.6343 131.432C21.7922 131.747 21.9501 132.297 22.3449 132.14C22.5028 132.14 22.5817 131.982 22.6607 131.904C23.5292 130.96 29.53 128.445 30.4775 129.546C30.2406 129.231 26.2138 123.964 27.3192 123.729C25.1084 124.2 22.3449 123.807 21.3184 121.685C19.4235 123.964 15.5546 124.043 13.4227 121.842C13.5017 121.921 10.5013 122.942 10.1855 122.942C9.00112 123.1 7.65884 122.549 6.47449 123.021C7.81676 125.222 10.5013 125.851 11.4488 128.445Z" fill="#00B252"/>
<path d="M32.8462 107.457C32.5304 107.3 31.7408 108.007 31.5829 108.164C31.346 108.636 31.5829 109.343 31.7408 109.815C31.1092 109.736 30.4775 110.051 30.1617 110.523C29.8458 110.994 29.8458 111.544 30.0827 112.016C29.7669 111.309 27.793 112.959 27.635 113.117C27.635 113.195 27.5561 113.195 27.4771 113.274C27.3192 113.352 27.1613 113.195 27.0823 113.117C27.0823 112.959 27.0823 112.881 27.1613 112.724C27.4771 112.016 27.5561 111.23 27.3192 110.523C28.2667 110.601 28.0298 108.715 27.714 108.243C27.8719 108.479 28.8984 107.693 28.9773 107.614C29.3721 107.221 29.53 106.671 29.4511 106.199C29.53 106.749 32.1356 104.941 32.2935 104.863C32.2935 105.649 31.8987 106.985 32.8462 107.457Z" fill="#00B252"/>
<path d="M22.0291 112.488C24.3978 121.606 28.9773 129.939 34.5832 137.485C34.8201 137.799 35.2939 137.485 35.057 137.17C29.53 129.624 24.9505 121.37 22.5818 112.33C22.5028 111.937 21.9501 112.095 22.0291 112.488Z" fill="#00B252"/>
<path d="M35.057 110.916C35.8466 111.937 34.8991 113.588 34.1885 114.139C32.5304 115.396 30.9512 115.632 29.2142 116.575C30.1617 117.676 30.7144 118.776 30.3985 120.349C30.1617 121.921 29.1352 122.864 28.1088 123.964C30.7933 123.964 31.9777 127.423 32.4514 129.467C32.6093 130.096 32.4514 129.86 32.6093 130.096C33.0041 130.568 33.3989 130.332 33.7147 130.017C34.0306 129.703 34.0306 129.231 34.0306 128.838C34.3464 126.794 34.6622 125.222 36.2413 123.886C34.5043 121.606 37.6626 121.213 39.3207 120.899C38.4522 120.742 38.5311 118.855 38.768 118.541C39.7944 117.204 40.9788 117.204 42.3211 116.811C40.8998 114.689 42.479 110.758 42.9527 108.4C40.505 110.68 38.4521 111.78 35.057 110.916Z" fill="#00B252"/>
<path d="M33.3199 125.851C32.7672 130.332 33.0041 134.577 34.978 138.743C35.2149 139.214 35.9255 138.979 35.7676 138.507C33.8726 134.419 33.6357 130.41 34.1884 126.008C34.1884 125.537 33.3989 125.38 33.3199 125.851Z" fill="#00B252"/>
<path d="M50.2168 170.657C51.1643 171.286 52.6645 170.343 53.0593 169.635C54.0857 168.063 54.2436 166.648 54.8753 165.076C55.9807 165.862 57.0071 166.255 58.3494 165.941C59.6917 165.626 60.5602 164.605 61.4287 163.661C61.5866 166.019 64.8239 166.884 66.7189 167.199C67.2716 167.277 67.1136 167.199 67.2716 167.277C67.7453 167.592 67.5084 167.985 67.2716 168.299C67.0347 168.614 66.5609 168.614 66.2451 168.692C64.4291 169.164 63.0079 169.478 61.9025 171.05C59.7706 169.635 59.6127 172.465 59.3758 174.037C59.2179 173.251 57.4809 173.487 57.244 173.723C56.1386 174.745 56.2176 175.767 55.9017 177.025C53.8488 175.924 50.4537 177.575 48.3218 178.125C50.3747 175.452 51.2433 173.566 50.2168 170.657Z" fill="#00B252"/>
<path d="M63.6395 168.771C67.5084 167.985 71.2194 167.906 75.0093 169.321C75.4041 169.478 75.7199 168.849 75.3251 168.692C71.4562 167.277 67.6663 167.277 63.6395 168.063C63.1657 168.142 63.2447 168.849 63.6395 168.771Z" fill="#00B252"/>
<path d="M29.1352 94.172C29.372 95.1153 27.9508 96.1372 27.2402 96.373C25.6611 97.0019 24.3977 97.1591 22.8186 97.5521C23.3713 98.7312 23.2134 99.7531 22.6607 100.932C22.108 102.111 21.2395 102.976 20.213 103.762C22.1869 104.234 22.4238 107.378 22.5028 108.872C22.5028 109.343 22.4238 109.186 22.5028 109.343C22.7396 109.736 23.0555 109.658 23.2923 109.422C23.5292 109.265 23.6082 108.872 23.6871 108.636C24.2398 107.142 24.7136 105.727 26.0558 104.705C25.2663 102.662 27.635 102.347 29.2141 102.347C28.5035 102.033 29.2141 100.539 29.451 100.382C30.5564 99.5173 31.4249 99.9104 32.6093 100.146C32.3724 98.4168 34.978 96.6088 36.0834 95.4297C33.6357 95.9014 31.346 95.5083 29.1352 94.172Z" fill="#00B252"/>
<path d="M23.7661 106.278C22.7397 109.501 22.2659 112.566 23.0555 115.868C23.1345 116.261 23.6872 116.025 23.6082 115.711C22.8186 112.488 23.3713 109.5 24.3188 106.356C24.3978 106.042 23.8451 105.885 23.7661 106.278Z" fill="#00B252"/>
<path d="M42.321 130.489C42.7158 131.118 41.8473 132.061 41.3735 132.375C40.3471 133.162 39.4786 133.476 38.4521 134.026C39.0838 134.812 39.1627 135.52 39.0048 136.463C38.8469 137.406 38.3732 138.192 37.7415 138.978C39.2417 138.978 39.9523 141.18 40.3471 142.201C40.4261 142.516 40.3471 142.437 40.4261 142.516C40.6629 142.752 40.8998 142.594 41.0577 142.437C41.2156 142.28 41.2156 141.966 41.2156 141.808C41.3735 140.629 41.3735 139.529 42.2421 138.585C41.2946 137.249 42.9527 136.62 44.0581 136.306C43.5054 136.227 43.7423 134.97 43.9002 134.812C44.5318 133.948 45.2424 134.105 46.111 134.105C45.6372 132.926 47.2164 131.118 47.6901 130.096C45.8741 130.882 44.216 131.039 42.321 130.489Z" fill="#00B252"/>
<path d="M40.742 140.079C40.5841 142.594 40.8209 144.874 42.0053 147.075C42.1632 147.311 42.479 147.075 42.3211 146.839C41.1368 144.638 40.9789 142.437 41.1368 140C41.1368 139.764 40.742 139.843 40.742 140.079Z" fill="#00B252"/>
<path d="M18.476 67.524C18.3181 67.6026 18.1601 67.6812 17.9233 67.7599C18.476 68.3887 18.6339 69.332 18.397 70.1967C18.1601 70.9828 17.3706 71.6902 16.581 71.8475C17.1337 72.4763 17.6864 73.1838 17.9233 73.9699C18.1601 74.7559 17.9233 75.7778 17.2127 76.2495C16.9758 76.4067 16.581 76.6425 16.66 76.8783C16.7389 76.957 16.8179 77.0356 16.8968 77.1142C17.7654 77.743 20.4499 82.6167 19.6603 83.4814C19.8972 83.2456 23.6871 79.4724 24.003 80.4157C23.3713 78.6077 23.3713 76.2495 24.9505 75.2276C22.8976 73.8127 22.3449 70.5897 23.924 68.6245C23.8451 68.7031 22.6607 66.2663 22.6607 66.0305C22.4238 65.0086 22.6607 63.8295 22.187 62.9648C20.6868 64.3011 20.5289 66.5807 18.476 67.524Z" fill="#00B252"/>
<path d="M2.7635 90.0058C2.7635 90.2416 2.7635 90.4775 2.68454 90.7133C3.71099 90.4775 4.73743 90.8705 5.44805 91.6566C6.15866 92.4426 6.39553 93.6218 6.0797 94.6437C7.02719 94.4078 8.05363 94.172 9.08007 94.4078C10.0276 94.6437 10.975 95.5083 10.975 96.5302C10.975 96.9233 10.975 97.3949 11.3698 97.4735C11.5277 97.4735 11.6067 97.3949 11.7646 97.3949C12.949 96.8447 19.4235 96.7661 19.8972 98.1024C19.7393 97.7094 18.0022 91.3421 19.1076 91.4994C16.8968 91.1063 14.4492 89.77 14.2912 87.4118C11.6857 88.8267 8.05363 87.4904 6.94823 84.6605C7.02719 84.8177 3.78995 84.5819 3.47412 84.5033C2.28976 84.1888 1.26331 83.2455 0 83.1669C0.631657 85.761 2.84246 87.2545 2.7635 90.0058Z" fill="#00B252"/>
<path d="M20.7657 79.158C19.0286 84.3461 18.9497 90.1631 19.2655 95.5084C19.5813 101.168 20.292 107.064 22.108 112.488C22.1869 112.802 22.7396 112.645 22.6607 112.33C20.9236 107.142 20.213 101.561 19.8972 96.1372C19.5813 90.6347 19.5024 84.7391 21.3184 79.3938C21.3974 79.0008 20.8447 78.7649 20.7657 79.158Z" fill="#00B252"/>
<path d="M31.8988 80.0227C32.2146 80.8874 30.8723 81.9879 30.2407 82.1451C28.7405 82.6168 27.3982 82.2237 25.977 82.2237C26.2928 83.4028 25.977 84.3461 25.0295 85.1322C24.082 85.9183 22.8976 86.1541 21.7133 86.3113C23.3714 87.0188 21.7133 90.4775 21.1606 91.4994C21.0027 91.8139 21.0027 91.7353 20.9237 91.8925C20.9237 92.2855 21.2395 92.4427 21.5554 92.3641C21.8712 92.2855 22.1081 92.0497 22.3449 91.8139C23.6082 90.6347 25.0295 89.9273 26.7665 89.8487C26.4507 87.7263 29.9248 88.2765 31.2671 88.5123C30.6354 88.0407 31.8988 86.5471 32.0567 86.3899C33.1621 85.6039 34.1885 85.7611 35.3729 85.7611C34.6623 84.975 37.5047 81.2804 38.1364 80.3371C35.9256 81.1232 33.8727 81.5949 31.8988 80.0227Z" fill="#00B252"/>
<path d="M24.7926 88.4337C21.9502 90.3989 19.9762 93.2288 19.1867 96.6089C19.1077 97.002 19.6604 97.0806 19.7394 96.6875C20.45 93.4646 22.3449 90.792 25.1084 88.9054C25.4243 88.6695 25.1084 88.1979 24.7926 88.4337Z" fill="#00B252"/>
<path d="M20.371 146.053C20.4499 146.21 20.6079 146.446 20.6868 146.603C21.3974 145.975 22.4239 145.66 23.3714 145.975C24.3188 146.21 25.0295 146.996 25.3453 147.94C26.0559 147.311 26.7665 146.603 27.635 146.289C28.5036 145.975 29.6879 146.132 30.2406 146.918C30.3985 147.232 30.7144 147.625 31.0302 147.468C31.1092 147.39 31.1881 147.311 31.2671 147.232C31.8987 146.21 37.1889 142.909 38.2153 143.774C37.8995 143.538 33.4779 139.529 34.5043 139.136C32.5304 139.922 29.9248 140.079 28.6615 138.428C27.2403 140.786 23.6082 141.573 21.3185 140C21.4764 140.079 18.7129 141.494 18.476 141.573C17.3706 141.887 16.0283 141.73 15.0019 142.28C16.581 143.852 19.1077 143.931 20.371 146.053Z" fill="#00B252"/>
<path d="M37.7415 164.605C37.8994 164.762 38.0573 164.998 38.2153 165.155C38.768 164.369 39.8734 163.897 40.8998 163.976C41.9262 164.054 42.9527 164.762 43.4264 165.705C43.9791 164.84 44.6108 164.054 45.4793 163.504C46.3478 163.032 47.6112 163.032 48.3218 163.74C48.5586 163.976 48.9534 164.369 49.2693 164.211C49.3482 164.133 49.4272 163.976 49.4272 163.897C49.9009 162.718 54.5594 158.237 55.9017 158.945C55.5858 158.788 49.9009 155.25 50.8484 154.621C48.9534 155.8 46.2689 156.508 44.5318 154.857C43.5843 157.687 40.0313 159.102 37.2678 157.844C37.4257 157.923 34.8991 159.888 34.6622 160.045C33.5568 160.596 32.1356 160.596 31.267 161.46C33.241 162.875 35.9255 162.482 37.7415 164.605Z" fill="#00B252"/>
<path d="M48.3218 137.642C49.1903 137.878 49.2693 139.686 49.0324 140.236C48.4797 141.651 47.4533 142.516 46.5058 143.616C47.6112 144.088 48.2429 144.874 48.3218 146.132C48.4008 147.389 47.927 148.411 47.2954 149.433C48.8745 148.569 50.6116 151.949 51.1643 152.971C51.3222 153.285 51.2432 153.285 51.3222 153.364C51.638 153.599 51.9538 153.442 52.1118 153.128C52.2697 152.813 52.1907 152.499 52.1118 152.185C51.9538 150.455 52.1907 148.962 53.2172 147.468C51.4011 146.446 53.8488 144.009 54.7963 143.145C54.0857 143.38 53.6119 141.494 53.6119 141.258C53.6909 139.922 54.4015 139.136 55.1121 138.192C54.0857 138.35 52.8224 133.79 52.4276 132.768C51.717 135.048 50.8484 137.013 48.3218 137.642Z" fill="#00B252"/>
<path d="M35.0571 138.743C39.3997 146.368 46.9796 152.499 53.9278 157.53C61.3498 162.954 69.9561 168.378 79.1152 170.186C79.5099 170.264 79.5889 169.714 79.1941 169.636C69.8772 167.828 61.1919 162.246 53.7699 156.744C47.0585 151.713 39.7155 145.817 35.5308 138.428C35.3729 138.114 34.8991 138.428 35.0571 138.743Z" fill="#00B252"/>
<path d="M50.7694 149.197C50.6115 152.656 51.7169 155.8 53.9277 158.473C54.1646 158.788 54.6383 158.394 54.4014 158.159C52.2696 155.565 51.2432 152.499 51.3221 149.197C51.4011 148.726 50.8484 148.804 50.7694 149.197Z" fill="#00B252"/>
<path d="M59.3758 146.839C60.0864 147.861 60.2443 149.04 60.0074 150.298C59.7705 151.556 59.2968 152.184 58.5862 152.971C59.0599 153.914 59.2968 154.857 59.0599 155.879C58.823 156.901 58.0335 157.451 57.7177 158.394C59.5337 160.281 61.7445 161.224 63.2447 163.661C63.3236 163.74 63.3236 163.818 63.4026 163.897C63.4815 163.976 63.5605 163.897 63.7184 163.897C64.0342 163.818 64.2711 163.818 64.5869 163.74C64.7448 163.74 65.2186 162.639 65.3765 162.482C65.6923 162.168 66.0082 161.853 66.324 161.539C67.1136 160.674 68.061 159.888 69.0085 159.181C67.5873 158.001 66.9556 156.351 67.8242 154.543C66.7188 153.992 66.1661 153.678 66.0082 152.106C65.9292 151.163 66.4819 150.219 66.9556 149.433C67.1136 149.119 67.4294 148.804 67.7452 148.804C66.0082 147.232 65.3765 145.424 64.3501 143.145C63.7184 144.166 63.2447 144.638 62.2182 145.346C61.9024 145.581 60.1653 147.154 59.3758 146.839Z" fill="#00B252"/>
<path d="M27.793 112.488C26.2138 114.767 27.3982 118.383 25.0295 120.191C24.7926 120.427 25.0295 120.82 25.3453 120.584C27.8719 118.698 26.6086 115.16 28.1877 112.802C28.3457 112.566 27.9509 112.252 27.793 112.488Z" fill="#00B252"/>
<path d="M101.697 167.435C102.723 168.692 102.013 170.579 100.354 170.815C97.512 171.129 94.5906 170.736 91.906 169.714L91.4323 169.557C89.9321 169.007 89.2215 167.356 89.8532 165.862L90.5638 163.976C91.1165 162.482 92.7746 161.775 94.2747 162.404L94.7485 162.561C97.433 163.583 99.8018 165.234 101.697 167.435Z" fill="#FFE3AB"/>
<path d="M108.566 167.435C107.54 168.692 108.25 170.579 109.908 170.815C112.751 171.129 115.672 170.736 118.357 169.714L118.83 169.557C120.331 169.007 121.041 167.356 120.41 165.862L119.699 163.976C119.146 162.482 117.488 161.775 115.988 162.404L115.514 162.561C112.83 163.583 110.382 165.234 108.566 167.435Z" fill="#FFE3AB"/>
<path d="M106.276 166.177H103.987C103.434 166.177 103.039 166.57 103.039 167.12V169.4C103.039 169.95 103.434 170.343 103.987 170.343H106.276C106.829 170.343 107.224 169.95 107.224 169.4V167.12C107.145 166.649 106.75 166.177 106.276 166.177Z" fill="#FFE3AB"/>
<path d="M98.1437 172.151C98.1437 172.151 91.8271 169.95 85.2737 177.025C84.9579 177.339 85.1158 177.889 85.5895 177.968L89.6163 178.675L90.6428 181.82C90.8007 182.37 91.5113 182.37 91.7482 181.82C92.6957 179.54 94.7486 175.217 98.1437 172.151Z" fill="#FFE3AB"/>
<path d="M112.04 172.151C112.04 172.151 118.357 169.95 124.91 177.025C125.226 177.339 125.068 177.889 124.594 177.968L120.568 178.675L119.541 181.82C119.383 182.37 118.673 182.37 118.436 181.82C117.488 179.54 115.435 175.217 112.04 172.151Z" fill="#FFE3AB"/>
<path d="M118.83 195.419C117.251 193.454 116.225 191.331 115.593 189.052C115.198 187.637 115.041 186.065 115.041 184.571V181.663C115.041 176.317 110.856 171.679 105.487 171.444C99.7229 171.208 94.9854 175.767 94.9854 181.427V184.571C94.9854 186.065 94.8275 187.558 94.4327 188.973C93.8011 191.253 92.7746 193.375 91.1955 195.419C90.9586 195.733 90.7217 196.048 90.4849 196.284V199.035C90.4849 200.135 96.9594 201 105.013 201C113.067 201 119.541 200.135 119.541 199.035V196.284C119.304 196.048 119.067 195.733 118.83 195.419Z" fill="#EEC26A"/>
<path d="M118.83 195.419C117.251 193.454 116.225 191.331 115.593 189.052C115.198 187.637 115.041 186.065 115.041 184.571V181.663C115.041 176.317 110.856 171.679 105.487 171.444C99.7229 171.208 94.9854 175.767 94.9854 181.427V184.571C94.9854 186.065 94.8275 187.558 94.4327 188.973C93.8011 191.253 92.7746 193.375 91.1955 195.419C90.9586 195.733 90.7217 196.048 90.4849 196.284V199.035C90.4849 200.135 96.9594 201 105.013 201C113.067 201 119.541 200.135 119.541 199.035V196.284C119.304 196.048 119.067 195.733 118.83 195.419Z" fill="url(#paint1_linear)" style="mix-blend-mode:overlay"/>
<defs>
<linearGradient id="paint0_linear" x1="122" y1="7" x2="97.5" y2="23.5" gradientUnits="userSpaceOnUse">
<stop stop-color="#C1982E"/>
<stop offset="1" stop-color="#F6DD99" stop-opacity="0"/>
</linearGradient>
<linearGradient id="paint1_linear" x1="115.754" y1="184.287" x2="102.319" y2="193.283" gradientUnits="userSpaceOnUse">
<stop stop-color="white"/>
<stop offset="1" stop-color="white" stop-opacity="0"/>
</linearGradient>
</defs>
</svg>
