<svg width="164" height="43" viewBox="0 0 164 43" fill="none" xmlns="http://www.w3.org/2000/svg">
<path d="M0.874965 39.8253C-0.00940828 39.1387 -0.22337 38.4447 0.233081 37.7435L1.88058 35.2014C2.42262 34.3687 3.21428 34.3249 4.25555 35.0699C5.05434 35.6397 6.09562 36.2314 7.37939 36.845C8.67742 37.444 10.0396 37.7435 11.4661 37.7435C12.4645 37.7435 13.4274 37.6266 14.3545 37.3928C15.2817 37.1591 15.9878 36.7062 16.4727 36.0342C16.9577 35.3621 17.2002 34.5659 17.2002 33.6455C17.2002 32.9881 17.0932 32.411 16.8793 31.9143C16.6653 31.4176 16.3158 31.0085 15.8309 30.6871C15.3459 30.3657 14.8466 30.0954 14.3331 29.8762C13.4345 29.4964 12.3005 29.1239 10.9311 28.7586C9.57606 28.3788 8.23524 27.9259 6.90867 27.3999C5.72476 26.9324 4.64068 26.2896 3.65646 25.4715C2.67224 24.6533 1.90911 23.7329 1.36708 22.7103C0.825041 21.6876 0.554023 20.3216 0.554023 18.6123C0.554023 16.5816 1.19591 14.8431 2.47968 13.3967C3.76344 11.9504 5.23978 11.0227 6.90867 10.6136C8.57757 10.2045 10.2607 10 11.9582 10C13.6413 10 15.3744 10.263 17.1574 10.7889C18.9547 11.3149 20.3098 11.9723 21.2227 12.7612C22.1213 13.5355 22.3424 14.2368 21.886 14.865L20.1529 17.2536C19.5681 18.0718 18.7835 18.1375 17.7993 17.4509C17.1717 17.0126 16.3087 16.5231 15.2104 15.9826C14.1263 15.442 12.9923 15.1718 11.8084 15.1718C10.9668 15.1718 10.1894 15.2448 9.47621 15.3909C8.77727 15.537 8.15678 15.8876 7.61475 16.4428C7.07271 16.998 6.80169 17.6846 6.80169 18.5027C6.80169 19.2917 7.00139 19.9345 7.40079 20.4312C7.80018 20.9133 8.24237 21.2785 8.72735 21.5269C9.21233 21.7607 9.70444 21.9579 10.2037 22.1186C11.7442 22.6299 13.1207 23.0828 14.3331 23.4773C15.5456 23.8571 16.6653 24.2808 17.6923 24.7483C19.1187 25.4057 20.2099 26.0632 20.9659 26.7206C21.7219 27.378 22.3424 28.2765 22.8274 29.4161C23.3266 30.5556 23.5763 31.9143 23.5763 33.4921C23.5763 35.8296 22.8488 37.7654 21.3939 39.2994C19.9389 40.8188 18.3199 41.7976 16.5369 42.2359C14.7682 42.6888 13.0422 42.9152 11.3591 42.9152C8.87712 42.9152 6.85875 42.6669 5.30396 42.1702C3.74918 41.688 2.27285 40.9064 0.874965 39.8253Z" fill="white"/>
<path d="M27.4057 36.0342C27.4057 33.1123 28.7679 30.9939 31.4924 29.679C34.2168 28.3642 37.3264 27.6629 40.8211 27.5753V26.6987C40.8211 25.3546 40.493 24.405 39.8369 23.8498C39.1807 23.2947 38.2678 23.0171 37.0982 23.0171C36.2708 23.0171 35.5362 23.1413 34.8944 23.3896C34.2667 23.6234 33.7176 23.901 33.2469 24.2224C32.7904 24.5292 32.3768 24.8433 32.0059 25.1647C31.3497 25.7491 30.8077 25.7783 30.3798 25.2523L28.6039 23.0171C28.1617 22.4619 28.2687 21.8921 28.9248 21.3078C29.4241 20.8549 30.0018 20.4604 30.6579 20.1244C31.3283 19.7884 32.2127 19.4743 33.3111 19.1821C34.4094 18.8753 35.8358 18.7219 37.5903 18.7219C40.5572 18.7219 42.8323 19.4231 44.4156 20.8257C46.0132 22.2282 46.812 24.2954 46.812 27.0274V41.5721C46.812 42.4487 46.3841 42.887 45.5282 42.887H42.0193C41.249 42.887 40.8639 42.4487 40.8639 41.5721V40.1979H40.8211C39.9795 41.0306 38.9668 41.6442 37.7828 42.0387C36.6132 42.4185 35.5363 42.6084 34.552 42.6084C32.2127 42.6084 30.4368 42.0241 29.2244 40.8553C28.0119 39.6719 27.4057 38.0649 27.4057 36.0342ZM33.739 35.9027C33.739 36.414 33.8388 36.8596 34.0385 37.2394C34.2382 37.6047 34.552 37.875 34.9799 38.0503C35.4079 38.2256 35.8857 38.3132 36.4135 38.3132C37.141 38.3132 37.847 38.211 38.5317 38.0064C39.2164 37.8019 39.9795 37.3198 40.8211 36.5601V31.8047C38.4247 32.0823 36.82 32.4402 36.007 32.8785C35.1939 33.3168 34.6091 33.7697 34.2525 34.2372C33.9101 34.7047 33.739 35.2599 33.739 35.9027Z" fill="white"/>
<path d="M50.4988 23.543C49.6572 23.543 49.2364 23.1778 49.2364 22.4473V20.2559C49.2364 19.5254 49.6572 19.1602 50.4988 19.1602H51.9537V18.3932C51.9537 17.7357 52.1035 17.1367 52.403 16.5962L54.0505 13.6378C54.3644 13.0826 54.7352 12.805 55.1631 12.805H56.6609C57.5167 12.805 57.9446 13.2433 57.9446 14.1199V19.1602H61.4108C62.2524 19.1602 62.6732 19.5254 62.6732 20.2559V22.4473C62.6732 23.1778 62.2524 23.543 61.4108 23.543H57.9446V34.4125C57.9446 35.9027 58.0445 36.9765 58.2442 37.6339C58.4582 38.2767 59.0002 38.5981 59.8703 38.5981C60.3125 38.5981 60.8117 38.5251 61.368 38.379C61.9243 38.2183 62.3594 38.0649 62.6732 37.9188C63.1724 37.685 63.5005 37.853 63.6574 38.4228L64.2993 40.921C64.4277 41.4178 64.2422 41.783 63.743 42.0168C63.2723 42.2359 62.6233 42.4331 61.796 42.6084C60.9829 42.7984 60.1627 42.8933 59.3354 42.8933C57.2956 42.8933 55.5554 42.4624 54.1147 41.6004C52.6741 40.7384 51.9537 38.9634 51.9537 36.2752V23.543H50.4988Z" fill="white"/>
<path d="M66.2969 30.8767C66.2969 27.1805 67.1955 24.2659 68.9928 22.1329C70.8043 19.9999 73.3576 18.9334 76.6526 18.9334C80.4754 18.9334 83.3139 19.9415 85.1683 21.9576C87.0226 23.9737 87.9498 27.217 87.9498 31.6875C87.9498 32.5641 87.5504 33.0024 86.7516 33.0024H72.6301C72.8584 35.4276 73.4432 36.9543 74.3846 37.5825C75.326 38.2107 76.4172 38.5248 77.6582 38.5248C78.8421 38.5248 79.4682 38.4519 80.3755 38.0427C81.0699 37.5825 81.5309 37.283 81.9588 36.7278C82.4438 36.085 83.0429 35.9827 83.7561 36.421L85.8957 37.7578C86.7373 38.2837 86.7843 38.832 86.1853 39.5625C85.3151 40.629 84.7385 41.3077 83.1998 42.0311C81.2143 42.9645 80.1845 42.8413 77.6597 42.8413C73.5659 42.8413 70.6474 41.7535 68.9072 39.6205C67.167 37.4875 66.2969 34.5729 66.2969 30.8767ZM72.6515 28.6195H81.9588C81.9588 27.0417 81.5737 25.7561 80.8035 24.7626C80.0332 23.7546 78.8065 23.2505 77.1233 23.2505C75.7825 23.2505 74.7198 23.7326 73.9353 24.6969C73.1508 25.6465 72.7228 26.954 72.6515 28.6195Z" fill="white"/>
<path d="M93.8979 42.9105C93.042 42.9105 92.6141 42.4723 92.6141 41.5957V15.7149C92.6141 15.0575 92.7639 14.4585 93.0634 13.918L94.7109 10.9595C95.0247 10.4044 95.3956 10.1268 95.8235 10.1268H97.3213C98.1771 10.1268 98.605 10.5651 98.605 11.4416V41.5957C98.605 42.4723 98.1771 42.9105 97.3213 42.9105H93.8979Z" fill="white"/>
<path d="M105.709 42.9105C104.853 42.9105 104.425 42.4723 104.425 41.5957V15.7149C104.425 15.0575 104.575 14.4585 104.874 13.918L106.522 10.9595C106.835 10.4044 107.206 10.1268 107.634 10.1268H109.132C109.988 10.1268 110.416 10.5651 110.416 11.4416V41.5957C110.416 42.4723 109.988 42.9105 109.132 42.9105H105.709Z" fill="white"/>
<path d="M117.541 42.9067C116.685 42.9067 116.257 42.4684 116.257 41.5918V21.2115C116.257 20.335 116.685 19.8967 117.541 19.8967H120.967C121.823 19.8967 122.251 20.335 122.251 21.2115V41.5918C122.251 42.4684 121.823 42.9067 120.967 42.9067H117.541Z" fill="white"/>
<path d="M126.549 23.543C125.707 23.543 125.287 23.1778 125.287 22.4473V20.2559C125.287 19.5254 125.707 19.1602 126.549 19.1602H128.004V18.3932C128.004 17.7357 128.154 17.1368 128.453 16.5962L130.101 13.6378C130.415 13.0826 130.785 12.805 131.213 12.805H132.711C133.567 12.805 133.995 13.2433 133.995 14.1199V19.1602H137.461C138.303 19.1602 138.723 19.5254 138.723 20.2559V22.4473C138.723 23.1778 138.303 23.543 137.461 23.543H133.995V34.4125C133.995 35.9027 134.095 36.9765 134.294 37.6339C134.508 38.2767 135.05 38.5981 135.921 38.5981C136.363 38.5981 136.862 38.5251 137.418 38.379C137.975 38.2183 138.41 38.0649 138.723 37.9188C139.223 37.685 139.551 37.853 139.708 38.4228L140.35 40.921C140.478 41.4178 140.292 41.783 139.793 42.0168C139.323 42.2359 138.674 42.4331 137.846 42.6084C137.033 42.7984 136.213 42.8933 135.386 42.8933C133.346 42.8933 131.606 42.4624 130.165 41.6004C128.724 40.7384 128.004 38.9634 128.004 36.2752V23.543H126.549Z" fill="white"/>
<path d="M142.347 30.8767C142.347 27.1805 143.246 24.2659 145.043 22.1329C146.855 19.9999 149.408 18.9334 152.703 18.9334C156.526 18.9334 159.364 19.9415 161.219 21.9576C163.073 23.9737 164 27.217 164 31.6875C164 32.5641 163.601 33.0024 162.802 33.0024H148.68C148.909 35.4276 149.493 36.9543 150.435 37.5825C151.376 38.2107 152.467 38.5248 153.708 38.5248C154.892 38.5248 155.518 38.4519 156.426 38.0427C157.12 37.5825 157.581 37.283 158.009 36.7278C158.494 36.085 159.093 35.9827 159.806 36.421L161.946 37.7578C162.788 38.2837 162.835 38.832 162.236 39.5625C161.365 40.629 160.789 41.3077 159.25 42.0311C157.265 42.9645 156.235 42.8413 153.71 42.8413C149.616 42.8413 146.698 41.7535 144.957 39.6205C143.217 37.4875 142.347 34.5729 142.347 30.8767ZM148.702 28.6195H158.009C158.009 27.0417 157.624 25.7561 156.854 24.7626C156.083 23.7546 154.857 23.2505 153.174 23.2505C151.833 23.2505 150.77 23.7326 149.986 24.6969C149.201 25.6465 148.773 26.954 148.702 28.6195Z" fill="white"/>
<path d="M119.306 16.5575C120.956 16.5575 122.294 15.1901 122.294 13.5034C122.294 11.8167 120.956 10.4493 119.306 10.4493C117.656 10.4493 116.318 11.8167 116.318 13.5034C116.318 15.1901 117.656 16.5575 119.306 16.5575Z" fill="white"/>
<path d="M119.305 5.21777C116.738 5.21777 114.313 6.49441 112.819 8.6327C112.392 9.24272 112.53 10.0905 113.127 10.5262C113.724 10.9621 114.553 10.8207 114.98 10.2107C115.976 8.7841 117.594 7.93245 119.305 7.93245C121.017 7.93245 122.634 8.7841 123.631 10.2107C123.89 10.5816 124.299 10.7792 124.713 10.7792C124.98 10.7792 125.25 10.6971 125.484 10.5262C126.08 10.0905 126.219 9.24272 125.792 8.6327C124.298 6.49441 121.873 5.21777 119.305 5.21777Z" fill="#E31C79"/>
<path d="M128.938 4.51893C126.484 1.72807 122.973 0.127441 119.306 0.127441C115.638 0.127441 112.127 1.72815 109.674 4.51915C109.183 5.07669 109.228 5.93489 109.774 6.43598C110.027 6.669 110.345 6.78382 110.661 6.78382C111.024 6.78375 111.387 6.63198 111.649 6.33367C113.6 4.11485 116.39 2.84212 119.306 2.84212C122.221 2.84212 125.012 4.1147 126.962 6.33359C127.453 6.89113 128.292 6.93691 128.838 6.4359C129.383 5.93474 129.428 5.07647 128.938 4.51893Z" fill="#E31C79"/>
</svg>
